<svg width="100" height="100" viewBox="0 0 100 100" fill="none" xmlns="http://www.w3.org/2000/svg">
<g clip-path="url(#clip0_1_4764)">
<path d="M75.0156 63.1333H52.4509V47.1935C52.4509 45.84 51.3534 44.7426 49.9999 44.7426C48.6464 44.7426 47.5489 45.84 47.5489 47.1935V63.1333H24.9842C17.3438 63.1333 11.1279 69.3492 11.1279 76.9898V86.4212C11.1279 87.7747 12.2254 88.8722 13.5789 88.8722C14.9324 88.8722 16.0299 87.7747 16.0299 86.4212V76.9898C16.0299 72.0522 20.0468 68.0353 24.9842 68.0353H47.5489V86.4212C47.5489 87.7747 48.6464 88.8722 49.9999 88.8722C51.3534 88.8722 52.4509 87.7747 52.4509 86.4212V68.0353H75.0156C79.953 68.0353 83.9699 72.0522 83.9699 76.9898V86.4212C83.9699 87.7747 85.0673 88.8722 86.4209 88.8722C87.7744 88.8722 88.8719 87.7747 88.8719 86.4212V76.9898C88.8719 69.3492 82.656 63.1333 75.0156 63.1333Z" fill="url(#paint0_linear_1_4764)"/>
<path d="M47.5488 58.511H52.4508V63.1331H47.5488V58.511Z" fill="url(#paint1_linear_1_4764)"/>
<path d="M13.579 100C21.0785 100 27.158 93.9205 27.158 86.421C27.158 78.9215 21.0785 72.842 13.579 72.842C6.07953 72.842 0 78.9215 0 86.421C0 93.9205 6.07953 100 13.579 100Z" fill="url(#paint2_linear_1_4764)"/>
<path d="M49.9999 100C57.4994 100 63.5789 93.9205 63.5789 86.421C63.5789 78.9215 57.4994 72.842 49.9999 72.842C42.5004 72.842 36.4209 78.9215 36.4209 86.421C36.4209 93.9205 42.5004 100 49.9999 100Z" fill="url(#paint3_linear_1_4764)"/>
<path d="M86.4208 100C93.9203 100 99.9998 93.9205 99.9998 86.421C99.9998 78.9215 93.9203 72.842 86.4208 72.842C78.9213 72.842 72.8418 78.9215 72.8418 86.421C72.8418 93.9205 78.9213 100 86.4208 100Z" fill="url(#paint4_linear_1_4764)"/>
<path d="M27.1587 86.4212C27.1587 93.9212 21.0783 99.9996 13.5783 99.9996C12.2136 99.9996 10.896 99.7977 9.65479 99.4231C15.2411 97.7408 19.3116 92.5565 19.3116 86.4212C19.3116 80.2859 15.2411 75.1016 9.65479 73.4192C10.896 73.0447 12.2136 72.8427 13.5783 72.8427C21.0783 72.8427 27.1587 78.9212 27.1587 86.4212Z" fill="url(#paint5_linear_1_4764)"/>
<path d="M63.5786 86.4212C63.5786 93.9212 57.5002 99.9996 50.0002 99.9996C48.6355 99.9996 47.3178 99.7977 46.0767 99.4231C51.6629 97.7408 55.7316 92.5565 55.7316 86.4212C55.7316 80.2859 51.6629 75.1016 46.0767 73.4192C47.3178 73.0447 48.6355 72.8427 50.0002 72.8427C57.5002 72.8427 63.5786 78.9212 63.5786 86.4212Z" fill="url(#paint6_linear_1_4764)"/>
<path d="M100 86.4212C100 93.9212 93.9196 99.9996 86.4216 99.9996C85.0569 99.9996 83.7392 99.7977 82.498 99.4231C88.0843 97.7408 92.153 92.5565 92.153 86.4212C92.153 80.2859 88.0843 75.1016 82.498 73.4192C83.7392 73.0447 85.0569 72.8427 86.4216 72.8427C93.9196 72.8427 100 78.9212 100 86.4212Z" fill="url(#paint7_linear_1_4764)"/>
<path d="M78.0718 22.0018C76.393 9.57804 65.7477 0 52.8638 0C38.8136 0 27.4236 11.39 27.4236 25.4402V25.4445C27.312 25.4424 27.2005 25.4402 27.0883 25.4402C17.9461 25.4402 10.5352 32.8514 10.5352 41.9933C10.5352 51.1353 17.9463 58.5465 27.0883 58.5465H70.3857C80.9226 58.5465 89.4646 50.0047 89.4646 39.4677C89.4648 31.6655 84.7806 24.9582 78.0718 22.0018Z" fill="url(#paint8_linear_1_4764)"/>
<path d="M78.0719 22.0018C76.3931 9.57804 65.7478 0 52.8639 0C51.5284 0 50.217 0.103529 48.937 0.301765C60.0076 2.01451 68.7196 10.8637 70.2247 22.0018C76.9337 24.9582 81.6178 31.6655 81.6178 39.4677C81.6178 50.0045 73.076 58.5465 62.539 58.5465H70.386C80.9229 58.5465 89.4649 50.0047 89.4649 39.4677C89.4649 31.6655 84.7807 24.9582 78.0719 22.0018Z" fill="url(#paint9_linear_1_4764)"/>
</g>
<defs>
<linearGradient id="paint0_linear_1_4764" x1="11.1279" y1="66.8073" x2="88.8719" y2="66.8073" gradientUnits="userSpaceOnUse">
<stop stop-color="#CDBFBA"/>
<stop offset="1" stop-color="#766E6E"/>
</linearGradient>
<linearGradient id="paint1_linear_1_4764" x1="47.5488" y1="60.8222" x2="52.4508" y2="60.8222" gradientUnits="userSpaceOnUse">
<stop stop-color="#9E9797"/>
<stop offset="1" stop-color="#5B5555"/>
</linearGradient>
<linearGradient id="paint2_linear_1_4764" x1="0.0852941" y1="86.421" x2="26.7629" y2="86.421" gradientUnits="userSpaceOnUse">
<stop stop-color="#B0E7C9"/>
<stop offset="0.593" stop-color="#46CC8D"/>
<stop offset="1" stop-color="#0AB69F"/>
</linearGradient>
<linearGradient id="paint3_linear_1_4764" x1="36.5062" y1="86.421" x2="63.1838" y2="86.421" gradientUnits="userSpaceOnUse">
<stop stop-color="#FFF9DF"/>
<stop offset="0.593" stop-color="#FFE177"/>
<stop offset="1" stop-color="#FEB137"/>
</linearGradient>
<linearGradient id="paint4_linear_1_4764" x1="72.9273" y1="86.421" x2="99.6049" y2="86.421" gradientUnits="userSpaceOnUse">
<stop stop-color="#A7E9FF"/>
<stop offset="0.593" stop-color="#67D7FE"/>
<stop offset="1" stop-color="#40BEE9"/>
</linearGradient>
<linearGradient id="paint5_linear_1_4764" x1="9.70969" y1="86.4212" x2="26.9042" y2="86.4212" gradientUnits="userSpaceOnUse">
<stop stop-color="#46CC8D"/>
<stop offset="0.5484" stop-color="#0AB69F"/>
<stop offset="1" stop-color="#01998D"/>
</linearGradient>
<linearGradient id="paint6_linear_1_4764" x1="46.1316" y1="86.4212" x2="63.3241" y2="86.4212" gradientUnits="userSpaceOnUse">
<stop stop-color="#FFE177"/>
<stop offset="1" stop-color="#FEB137"/>
</linearGradient>
<linearGradient id="paint7_linear_1_4764" x1="82.5529" y1="86.4212" x2="99.7455" y2="86.4212" gradientUnits="userSpaceOnUse">
<stop stop-color="#42B0D6"/>
<stop offset="0.7043" stop-color="#1AA5D6"/>
<stop offset="1" stop-color="#00A0D9"/>
</linearGradient>
<linearGradient id="paint8_linear_1_4764" x1="14.9248" y1="29.2733" x2="63.581" y2="29.2733" gradientUnits="userSpaceOnUse">
<stop stop-color="#F2FBFF"/>
<stop offset="0.593" stop-color="#FAF7F7"/>
<stop offset="1" stop-color="#F3EAE6"/>
</linearGradient>
<linearGradient id="paint9_linear_1_4764" x1="55.6864" y1="29.2733" x2="94.9888" y2="29.2733" gradientUnits="userSpaceOnUse">
<stop stop-color="#F3EAE6"/>
<stop offset="1" stop-color="#CDBFBA"/>
</linearGradient>
<clipPath id="clip0_1_4764">
<rect width="100" height="100" fill="white"/>
</clipPath>
</defs>
</svg>
